<?xml version="1.0" standalone="no"?>
<!DOCTYPE svg PUBLIC "-//W3C//DTD SVG 20010904//EN"
 "http://www.w3.org/TR/2001/REC-SVG-20010904/DTD/svg10.dtd">
<svg version="1.0" xmlns="http://www.w3.org/2000/svg"
 width="704.000000pt" height="305.000000pt" viewBox="0 0 704.000000 305.000000"
 preserveAspectRatio="xMidYMid meet">

<g transform="translate(0.000000,305.000000) scale(0.100000,-0.100000)"
fill="#000000" stroke="none">
<path d="M5310 2934 c-221 -29 -496 -139 -671 -271 -330 -248 -526 -601 -571
-1028 -24 -229 24 -499 127 -722 151 -326 429 -591 759 -722 154 -61 235 -81
428 -103 83 -9 131 -9 220 0 150 16 162 19 286 53 374 105 714 387 883 734 94
193 137 367 146 588 17 388 -123 757 -391 1036 -98 101 -225 204 -243 196 -8
-2 -12 -1 -9 4 8 13 -8 24 -128 85 -111 57 -239 103 -368 132 -72 16 -387 28
-468 18z m1112 -977 c9 -1 15 -3 13 -6 -3 -2 17 -17 43 -32 138 -78 210 -248
167 -395 -9 -32 -28 -79 -42 -104 -49 -87 -128 -210 -134 -210 -10 0 -109 126
-109 138 0 6 20 40 45 75 84 120 102 188 70 265 -33 77 -86 112 -171 112 -113
0 -187 -75 -186 -187 1 -84 39 -147 272 -439 77 -97 140 -180 140 -184 0 -11
-101 -130 -111 -130 -20 0 -235 277 -347 447 -98 151 -116 195 -120 293 -3 74
0 93 22 143 32 72 76 129 121 157 20 12 32 27 29 32 -4 6 -2 8 4 5 15 -10 43
3 35 16 -3 5 -2 7 4 4 6 -4 30 -2 54 3 24 5 76 6 114 3 39 -3 78 -6 87 -6z
m-1824 -119 c22 -46 74 -154 117 -241 l77 -158 116 241 117 240 92 0 93 0 0
-395 0 -395 -75 0 -75 0 0 263 0 262 -70 -145 c-38 -80 -86 -179 -107 -220
l-38 -75 -51 -3 c-33 -2 -54 2 -60 10 -6 7 -53 102 -105 212 l-94 198 -5 -248
-5 -249 -75 0 -75 0 -3 393 -2 392 94 0 95 0 39 -82z m1170 -122 c34 -17 62
-41 79 -68 28 -41 28 -44 37 -265 4 -123 5 -230 2 -239 -5 -12 -21 -14 -83
-12 -72 3 -78 5 -81 26 l-3 22 -44 -26 c-78 -45 -225 -33 -288 24 -53 48 -74
160 -42 223 17 31 89 89 112 89 8 0 12 3 10 8 -3 4 52 9 121 10 70 2 129 6
131 8 10 9 -12 56 -33 69 -26 17 -132 34 -124 19 4 -5 -8 -9 -26 -10 -17 0
-47 -8 -65 -17 -46 -23 -47 -22 -74 21 -40 64 -40 66 16 96 29 14 58 26 65 26
7 0 10 4 7 10 -3 5 0 8 7 5 7 -3 27 -1 43 5 54 17 176 5 233 -24z"/>
<path d="M5521 1377 c-37 -19 -46 -40 -32 -75 14 -32 34 -42 93 -42 77 0 138
42 138 97 l0 33 -87 0 c-50 0 -98 -6 -112 -13z"/>
<path d="M3533 1870 c-123 -18 -203 -94 -211 -198 -9 -130 43 -176 272 -238
33 -9 70 -27 83 -40 20 -21 22 -27 12 -46 -17 -33 -28 -38 -82 -38 -53 0 -158
37 -220 78 -20 14 -39 23 -41 21 -2 -2 -20 -36 -40 -76 l-36 -72 43 -25 c63
-37 109 -55 188 -71 193 -41 348 16 394 144 21 61 19 89 -11 149 -32 65 -79
94 -210 133 -117 35 -132 43 -140 76 -9 33 16 53 64 53 37 0 174 -43 209 -66
22 -14 24 -12 60 61 45 90 43 94 -63 129 -78 26 -194 37 -271 26z"/>
<path d="M151 1840 c11 -14 40 -54 66 -90 25 -36 69 -95 97 -132 50 -68 51
-68 99 -68 l49 0 -39 53 c-21 30 -72 99 -113 155 l-75 100 -52 4 -51 3 19 -25z"/>
<path d="M357 1858 c4 -7 57 -86 117 -175 l108 -161 -88 -129 c-48 -70 -105
-151 -126 -180 -21 -29 -38 -55 -38 -58 0 -3 53 -5 119 -5 l119 0 67 105 c37
57 72 102 77 99 5 -3 38 -50 75 -105 l65 -99 119 0 c66 0 119 4 119 9 0 9 -16
33 -139 211 -36 52 -75 110 -88 129 l-23 33 44 62 c47 67 167 244 180 264 5 9
-20 12 -114 12 l-121 0 -57 -90 c-31 -49 -61 -89 -65 -87 -4 1 -32 41 -61 87
l-53 85 -122 3 c-98 2 -121 0 -114 -10z"/>
<path d="M1442 1853 c-6 -10 -74 -169 -152 -353 -78 -184 -144 -339 -147 -343
-3 -4 44 -6 103 -5 l108 3 21 55 21 55 151 3 152 3 22 -61 22 -60 108 0 c60 0
109 2 109 4 0 4 -26 71 -40 101 -5 11 -40 97 -78 190 -39 94 -93 227 -122 298
l-52 127 -109 0 c-93 0 -110 -2 -117 -17z m157 -307 c22 -62 41 -116 41 -120
0 -9 -168 -7 -174 2 -6 10 75 232 85 232 3 0 25 -51 48 -114z"/>
<path d="M2022 1513 l3 -358 255 0 255 0 0 85 0 85 -150 5 -150 5 -3 268 -2
267 -105 0 -105 0 2 -357z"/>
<path d="M2620 1510 l0 -360 298 2 297 3 3 78 3 77 -196 0 -195 0 0 65 0 65
170 0 170 0 0 75 0 75 -170 0 -170 0 0 65 0 65 190 0 190 0 0 75 0 75 -295 0
-295 0 0 -360z"/>
</g>
</svg>
