<?xml version="1.0" encoding="utf-8" ?>
<svg baseProfile="full" height="48.0" version="1.1" width="110.79344262295083" xmlns="http://www.w3.org/2000/svg" xmlns:ev="http://www.w3.org/2001/xml-events" xmlns:xlink="http://www.w3.org/1999/xlink"><defs /><path d="M 33,154 33,155 30,158 30,159 28,161 28,162 27,163 26,163 26,164 24,166 24,167 22,169 22,170 19,173 19,174 17,176 17,177 16,178 15,178 15,179 13,181 13,182 12,183 12,184 8,188 8,189 7,190 8,191 21,191 21,190 25,186 25,185 28,182 28,181 30,179 30,178 34,174 34,173 36,171 36,170 41,165 41,164 43,162 43,161 47,157 47,156 48,155 48,154 Z" fill="black" stroke="none" /><path d="M 260,116 260,191 322,191 322,172 284,172 283,171 283,163 284,162 318,162 318,144 284,144 283,143 283,135 284,134 321,134 321,116 Z" fill="black" stroke="none" /><path d="M 201,116 201,191 254,191 254,171 225,171 224,170 224,116 Z" fill="black" stroke="none" /><path d="M 144,116 142,118 142,120 141,121 141,122 140,123 140,125 139,126 139,127 138,128 138,129 137,130 137,132 136,133 136,134 135,135 135,136 134,137 134,139 133,140 133,141 132,142 132,144 130,146 131,147 129,149 129,150 128,151 128,153 127,154 127,155 126,156 126,158 124,160 124,162 123,163 123,164 122,165 122,167 121,168 121,169 120,170 120,172 119,173 119,174 118,175 118,177 116,179 116,181 115,182 115,183 114,184 114,186 113,187 113,188 112,189 112,190 113,191 135,191 136,190 136,189 137,188 137,186 138,185 138,183 139,182 139,180 140,179 168,179 169,180 169,182 170,183 170,184 171,185 171,187 172,188 172,190 173,190 174,191 197,191 197,189 196,188 196,186 195,185 195,184 194,183 194,182 193,181 193,179 192,178 192,177 191,176 191,174 190,173 190,172 189,171 189,169 187,167 187,165 186,164 186,163 185,162 185,160 184,159 184,157 183,156 183,154 181,152 181,150 180,149 180,148 179,147 179,146 178,145 178,142 176,140 176,138 175,137 175,136 174,135 174,133 173,132 173,131 172,130 172,128 171,127 171,126 170,125 170,123 169,122 169,121 168,120 168,118 167,117 167,116 Z" fill="black" stroke="none" /><path d="M 33,116 33,119 36,122 36,123 38,125 38,126 39,127 39,128 40,129 40,130 41,130 42,131 42,132 43,133 43,134 44,135 44,136 45,136 46,137 46,138 47,139 47,140 48,140 49,141 49,142 50,143 50,144 51,145 51,146 55,150 55,151 56,152 56,153 53,156 53,157 51,159 51,160 49,162 49,163 47,165 47,166 45,168 45,169 42,172 42,173 41,174 41,175 40,176 39,176 39,177 38,178 38,179 36,181 36,182 35,183 34,183 34,184 33,185 33,186 32,187 32,188 31,189 31,191 57,191 57,190 59,188 59,187 60,186 60,185 63,182 63,181 64,180 64,179 66,177 66,176 69,173 69,172 70,171 73,174 73,176 74,177 75,177 76,178 76,180 77,181 77,182 78,182 79,183 79,184 80,185 80,186 81,187 81,188 82,188 83,189 83,190 84,191 110,191 110,188 109,187 109,186 106,183 106,182 105,181 105,180 103,178 103,177 100,174 100,173 98,171 98,170 96,168 96,167 94,165 94,164 91,161 91,160 90,159 90,158 87,155 87,154 86,153 86,152 85,151 88,148 88,147 89,146 89,145 92,142 92,141 94,139 94,138 96,136 96,135 98,133 98,132 101,129 101,128 103,126 103,125 104,124 104,123 107,120 107,119 108,118 108,116 81,116 81,117 80,118 80,119 79,120 79,121 77,123 77,124 75,126 75,127 73,129 73,130 72,131 72,132 71,133 70,133 68,131 68,130 66,128 66,127 64,125 64,124 63,123 63,122 60,119 60,118 59,117 59,116 Z" fill="black" stroke="none" /><path d="M 10,116 10,118 13,121 13,122 14,123 14,124 16,126 16,127 17,127 18,128 18,130 19,130 20,131 20,132 21,132 22,133 22,134 24,136 24,137 26,139 26,140 27,141 27,142 29,144 29,145 30,145 33,148 33,150 34,150 35,151 48,151 48,149 45,146 45,145 42,142 42,141 40,139 40,138 38,136 38,135 37,135 36,134 36,133 34,131 34,130 32,128 32,127 31,127 30,126 30,125 28,123 28,122 25,119 25,118 24,117 24,116 Z" fill="black" stroke="none" /><path d="M 356,115 355,116 351,116 350,117 348,117 347,118 344,118 342,120 340,120 340,121 339,122 338,122 334,126 334,127 332,129 332,130 331,131 331,133 330,134 330,141 331,142 330,143 330,144 331,145 331,147 332,148 332,149 336,153 336,154 337,155 338,155 339,156 340,156 342,158 345,158 346,159 347,159 348,160 349,160 350,161 354,161 355,162 357,162 358,163 361,163 362,164 363,164 364,165 365,165 367,167 367,170 365,172 356,172 355,171 352,171 351,170 349,170 348,169 347,169 346,168 345,168 344,167 343,167 342,166 341,166 340,165 339,165 336,162 333,162 333,163 332,164 332,166 331,167 331,168 330,169 330,170 329,171 329,172 328,173 328,174 327,175 327,176 326,177 326,180 327,180 329,182 330,182 332,184 334,184 336,186 338,186 339,187 341,187 342,188 343,188 344,189 348,189 349,190 352,190 353,191 368,191 369,190 372,190 373,189 376,189 377,188 378,188 380,186 381,186 382,185 383,185 388,180 388,179 389,178 389,177 390,176 390,173 391,172 391,162 390,161 390,159 389,158 389,157 387,155 387,154 384,151 383,151 381,149 380,149 379,148 377,148 376,147 375,147 374,146 371,146 370,145 369,145 368,144 366,144 365,143 364,144 363,143 362,143 361,142 360,142 359,141 357,141 353,137 355,135 356,135 357,134 361,134 362,135 366,135 367,136 369,136 370,137 373,137 375,139 377,139 378,140 379,140 380,141 381,141 382,142 383,142 384,141 384,140 385,139 385,137 387,135 387,133 389,131 389,130 390,129 390,127 391,126 391,124 389,122 387,122 385,120 382,120 381,119 380,119 379,118 375,118 374,117 372,117 371,116 366,116 365,115 Z" fill="black" stroke="none" /><path d="M 544,8 543,9 533,9 532,10 524,10 523,11 520,11 519,12 514,12 513,13 511,13 510,14 506,14 505,15 504,15 503,16 500,16 498,18 495,18 494,19 493,19 491,21 488,21 486,23 484,23 482,25 480,25 478,27 477,27 476,28 475,28 473,30 472,30 471,31 470,31 467,34 466,34 465,35 464,35 460,39 459,39 456,42 455,42 450,47 449,47 449,48 439,58 439,59 434,64 434,65 430,69 430,70 429,71 429,72 426,75 426,77 424,79 424,80 423,81 423,82 421,84 421,85 420,86 420,87 419,88 419,89 418,90 418,91 417,92 417,94 416,95 416,96 415,97 415,99 413,101 413,103 412,104 412,107 411,108 411,109 410,110 410,113 409,114 409,116 408,117 408,122 407,123 407,125 406,126 406,133 405,134 405,140 404,141 404,165 405,166 405,172 406,173 406,180 407,181 407,184 408,185 408,189 409,190 409,192 410,193 410,196 411,197 411,199 412,200 412,202 413,203 413,205 414,206 414,207 415,208 415,210 416,211 416,212 417,213 417,214 418,215 418,216 419,217 419,218 420,219 420,220 421,221 421,222 422,223 422,224 424,226 424,227 425,228 425,229 426,230 426,231 428,233 428,234 430,236 430,237 434,241 434,242 436,244 436,245 452,261 452,262 453,262 456,265 457,265 460,268 461,268 462,269 462,270 463,270 465,272 466,272 467,273 468,273 469,274 469,275 470,275 471,276 472,276 473,277 474,277 476,279 477,279 478,280 479,280 480,281 481,281 482,282 483,282 484,283 485,283 486,284 487,284 488,285 490,285 492,287 493,287 494,288 496,288 497,289 498,289 499,290 502,290 503,291 504,291 505,292 509,292 510,293 512,293 513,294 517,294 518,295 521,295 522,296 530,296 531,297 536,297 537,298 560,298 561,297 567,297 568,296 576,296 577,295 579,295 580,294 585,294 586,293 588,293 589,292 592,292 593,291 594,291 595,290 598,290 599,289 600,289 601,288 602,288 603,287 605,287 606,286 607,286 608,285 610,285 612,283 614,283 615,282 616,282 618,280 619,280 620,279 622,279 622,278 623,277 625,277 628,274 629,274 631,272 632,272 635,269 636,269 638,267 639,267 647,259 648,259 654,253 654,252 663,243 663,242 665,240 665,239 668,236 668,235 669,234 669,233 671,231 671,230 673,228 673,227 675,225 675,224 676,223 676,221 678,219 678,217 680,215 680,213 682,211 682,209 683,208 683,206 684,205 684,203 685,202 685,201 686,200 686,198 687,197 687,194 688,193 688,192 689,191 689,187 690,186 690,183 691,182 691,175 692,174 692,169 693,168 693,138 692,137 692,132 691,131 691,125 690,124 690,121 689,120 689,116 688,115 688,113 687,112 687,109 686,108 686,106 685,105 685,103 684,102 684,101 683,100 683,99 682,98 682,96 681,95 681,94 680,93 680,91 678,89 678,87 676,85 676,83 674,81 674,80 672,78 672,77 671,76 671,75 669,73 669,72 667,70 667,69 664,66 664,65 660,61 660,60 659,60 658,59 658,58 640,40 639,40 637,38 636,38 635,37 635,36 633,36 632,35 632,34 631,34 630,33 629,33 626,30 624,30 621,27 619,27 617,25 616,25 615,24 614,24 613,23 612,23 611,22 610,22 609,21 607,21 605,19 602,19 601,18 600,18 599,17 598,17 597,16 595,16 594,15 592,15 591,14 587,14 586,13 584,13 583,12 578,12 577,11 575,11 574,10 565,10 564,9 556,9 555,8 Z" fill="black" stroke="none" /></svg>